<svg id="Capa_1" data-name="Capa 1" xmlns="http://www.w3.org/2000/svg" viewBox="0 0 20.57 25.67"><title>favicon</title><path d="M27.12,19.21l-2.78-8.14a2.84,2.84,0,0,0-.29-.61L20.67,5.3a2.45,2.45,0,0,0-2-1.11H15.26a2.44,2.44,0,0,0-2,1.1L9.82,10.42a2.43,2.43,0,0,0-.3.63L6.76,19.22a2.43,2.43,0,0,0,.08,1.66L8.75,26a2.36,2.36,0,0,0,1,1.18l3.71,2.33a2.46,2.46,0,0,0,1.21.35h4.48a2.46,2.46,0,0,0,1.21-.35l3.76-2.29a2.41,2.41,0,0,0,1-1.22L27,20.87A2.49,2.49,0,0,0,27.12,19.21ZM23.4,12.63l1.38,4.06-.06.06L22,14a.19.19,0,0,1,0-.26l1.17-1.18a.2.2,0,0,1,.27,0s0,0,0,0Zm-7.55,4.72a.24.24,0,0,1,0,.32l-2.58,2.58a.22.22,0,0,1-.31,0h0l-2.57-2.57a.22.22,0,0,1,0-.31h0L13,14.82a.22.22,0,0,1,.32,0Zm-1.62-3.62a.28.28,0,0,1,.07-.17l2.47-2.38a.22.22,0,0,1,.31,0h0l2.46,2.46h0a.28.28,0,0,1,.07.17.24.24,0,0,1-.07.16l-2.43,2.42a.22.22,0,0,1-.17.07.2.2,0,0,1-.16-.07l-2.5-2.5a.24.24,0,0,1,0-.16Zm0,7.47,2.58-2.57a.2.2,0,0,1,.16-.07h0a.22.22,0,0,1,.17.07l2.57,2.57a.24.24,0,0,1,0,.33L17.12,24.1a.22.22,0,0,1-.31,0h0l-2.58-2.57A.26.26,0,0,1,14.23,21.2Zm3.89-3.53a.22.22,0,0,1,0-.31h0l2.43-2.43a.22.22,0,0,1,.31,0h0l2.55,2.58a.24.24,0,0,1,0,.32L21,20.25a.22.22,0,0,1-.31,0h0Zm2.34-9.9a.18.18,0,0,1,.16.1l1.9,2.91a.23.23,0,0,1,0,.29L20.9,12.69a.22.22,0,0,1-.31,0h0l-2.46-2.44a.22.22,0,0,1-.07-.17.2.2,0,0,1,.07-.16l2.16-2.09a.2.2,0,0,1,.15-.06Zm-6.09-1.5.23-.36a.83.83,0,0,1,.63-.41h3.49a.83.83,0,0,1,.63.41l.27.41a.23.23,0,0,1,0,.29l-2.36,2.3A.32.32,0,0,1,17,9a.33.33,0,0,1-.23-.1L14.44,6.55a.21.21,0,0,1-.1-.28h0Zm-2.93,4.47,1.92-2.93a.25.25,0,0,1,.17-.11.26.26,0,0,1,.19.07l2.1,2.13a.28.28,0,0,1,.07.17.24.24,0,0,1-.07.16l-2.47,2.38a.22.22,0,0,1-.31,0h0L11.44,11a.25.25,0,0,1,0-.26Zm-.95,1.89a.18.18,0,0,1,.24-.11l.07,0L12,13.71A.19.19,0,0,1,12,14L9.12,16.75v-.06Zm-.8,11.16a.23.23,0,0,1-.16.06h0a.21.21,0,0,1-.16-.14l-1.2-3.23a.79.79,0,0,1,0-.48v-.15a.21.21,0,0,1,.06-.1,13.36,13.36,0,0,0,1-1,.26.26,0,0,1,.33,0l2.42,2.42a.2.2,0,0,1,.07.16.22.22,0,0,1-.07.17Zm4,3.83-.08.1a.21.21,0,0,1-.19.1H13.3l-2.73-1.66a.81.81,0,0,1-.31-.35l-.1-.26a.24.24,0,0,1,.09-.26l.06-.06,2.81-2.79a.22.22,0,0,1,.31,0h0L16,25a.22.22,0,0,1,0,.31h0Zm5.31.81a.23.23,0,0,1-.21.15H15.12a.24.24,0,0,1-.22-.15.25.25,0,0,1,0-.25l1.85-1.84a.2.2,0,0,1,.16-.07h0a.2.2,0,0,1,.16.07L19,28.18a.21.21,0,0,1,.06.25Zm4.86-2.87-.09.26a.81.81,0,0,1-.32.34H23.4l-2.67,1.63a.24.24,0,0,1-.12,0,.21.21,0,0,1-.19-.1.28.28,0,0,0-.09-.1l-2.21-2.21a.22.22,0,0,1,0-.31h0l2.58-2.58a.22.22,0,0,1,.32,0l2.76,2.76h.06a.22.22,0,0,1,.06.31h0Zm1.89-5.08-1.2,3.23a.25.25,0,0,1-.16.14h-.05a.23.23,0,0,1-.16-.06l-2.27-2.26a.26.26,0,0,1,0-.33l2.43-2.42a.22.22,0,0,1,.32,0c.25.25.85.83,1,1a.23.23,0,0,1,.07.1l.05.14a.72.72,0,0,1,0,.46Z" transform="translate(-6.65 -4.19)"/></svg>